<mxfile host="Electron" modified="2023-10-25T16:11:53.106Z" agent="Mozilla/5.0 (Windows NT 10.0; Win64; x64) AppleWebKit/537.36 (KHTML, like Gecko) draw.io/22.0.2 Chrome/114.0.5735.289 Electron/25.8.4 Safari/537.36" etag="NHB3f1ZVtxPYDzBNiQcP" version="22.0.2" type="device">
  <diagram name="page-1" id="nTteX_-L-bd6lsjCAH_5">
    <mxGraphModel dx="592" dy="346" grid="1" gridSize="10" guides="1" tooltips="1" connect="1" arrows="1" fold="1" page="1" pageScale="1" pageWidth="827" pageHeight="1169" math="0" shadow="0">
      <root>
        <mxCell id="0" />
        <mxCell id="1" parent="0" />
        <mxCell id="SOOv6cvLNteCJ1bs6XL--6" style="edgeStyle=orthogonalEdgeStyle;rounded=0;orthogonalLoop=1;jettySize=auto;html=1;exitX=0.25;exitY=1;exitDx=0;exitDy=0;exitPerimeter=0;entryX=0;entryY=0.5;entryDx=0;entryDy=0;" edge="1" parent="1" source="SOOv6cvLNteCJ1bs6XL--1" target="SOOv6cvLNteCJ1bs6XL--5">
          <mxGeometry relative="1" as="geometry" />
        </mxCell>
        <mxCell id="SOOv6cvLNteCJ1bs6XL--9" style="edgeStyle=orthogonalEdgeStyle;rounded=0;orthogonalLoop=1;jettySize=auto;html=1;exitX=0.25;exitY=1;exitDx=0;exitDy=0;exitPerimeter=0;entryX=0;entryY=0.5;entryDx=0;entryDy=0;" edge="1" parent="1" source="SOOv6cvLNteCJ1bs6XL--1" target="SOOv6cvLNteCJ1bs6XL--7">
          <mxGeometry relative="1" as="geometry" />
        </mxCell>
        <mxCell id="SOOv6cvLNteCJ1bs6XL--10" style="edgeStyle=orthogonalEdgeStyle;rounded=0;orthogonalLoop=1;jettySize=auto;html=1;exitX=0.25;exitY=1;exitDx=0;exitDy=0;exitPerimeter=0;entryX=0;entryY=0.5;entryDx=0;entryDy=0;" edge="1" parent="1" source="SOOv6cvLNteCJ1bs6XL--1" target="SOOv6cvLNteCJ1bs6XL--8">
          <mxGeometry relative="1" as="geometry" />
        </mxCell>
        <mxCell id="SOOv6cvLNteCJ1bs6XL--36" style="edgeStyle=orthogonalEdgeStyle;rounded=0;orthogonalLoop=1;jettySize=auto;html=1;exitX=0.25;exitY=1;exitDx=0;exitDy=0;exitPerimeter=0;entryX=0;entryY=0.5;entryDx=0;entryDy=0;" edge="1" parent="1" source="SOOv6cvLNteCJ1bs6XL--1" target="SOOv6cvLNteCJ1bs6XL--35">
          <mxGeometry relative="1" as="geometry" />
        </mxCell>
        <mxCell id="SOOv6cvLNteCJ1bs6XL--1" value="rete-cli" style="shape=folder;fontStyle=1;tabWidth=40;tabHeight=10;tabPosition=left;html=1;boundedLbl=1;whiteSpace=wrap;" vertex="1" parent="1">
          <mxGeometry x="20" y="20" width="120" height="70" as="geometry" />
        </mxCell>
        <mxCell id="SOOv6cvLNteCJ1bs6XL--39" style="edgeStyle=orthogonalEdgeStyle;rounded=0;orthogonalLoop=1;jettySize=auto;html=1;exitX=1;exitY=0.5;exitDx=0;exitDy=0;entryX=0;entryY=0.5;entryDx=0;entryDy=0;dashed=1;" edge="1" parent="1" source="SOOv6cvLNteCJ1bs6XL--5" target="SOOv6cvLNteCJ1bs6XL--29">
          <mxGeometry relative="1" as="geometry" />
        </mxCell>
        <mxCell id="SOOv6cvLNteCJ1bs6XL--40" style="edgeStyle=orthogonalEdgeStyle;rounded=0;orthogonalLoop=1;jettySize=auto;html=1;exitX=1;exitY=0.5;exitDx=0;exitDy=0;entryX=0;entryY=0.5;entryDx=0;entryDy=0;dashed=1;" edge="1" parent="1" source="SOOv6cvLNteCJ1bs6XL--5" target="SOOv6cvLNteCJ1bs6XL--18">
          <mxGeometry relative="1" as="geometry" />
        </mxCell>
        <mxCell id="SOOv6cvLNteCJ1bs6XL--5" value="build" style="rounded=1;whiteSpace=wrap;html=1;arcSize=50;" vertex="1" parent="1">
          <mxGeometry x="90" y="110" width="80" height="30" as="geometry" />
        </mxCell>
        <mxCell id="SOOv6cvLNteCJ1bs6XL--42" style="edgeStyle=orthogonalEdgeStyle;rounded=0;orthogonalLoop=1;jettySize=auto;html=1;exitX=1;exitY=0.5;exitDx=0;exitDy=0;entryX=0;entryY=0.5;entryDx=0;entryDy=0;dashed=1;" edge="1" parent="1" source="SOOv6cvLNteCJ1bs6XL--7" target="SOOv6cvLNteCJ1bs6XL--30">
          <mxGeometry relative="1" as="geometry" />
        </mxCell>
        <mxCell id="SOOv6cvLNteCJ1bs6XL--7" value="lint" style="rounded=1;whiteSpace=wrap;html=1;arcSize=50;" vertex="1" parent="1">
          <mxGeometry x="90" y="160" width="80" height="30" as="geometry" />
        </mxCell>
        <mxCell id="SOOv6cvLNteCJ1bs6XL--43" style="edgeStyle=orthogonalEdgeStyle;rounded=0;orthogonalLoop=1;jettySize=auto;html=1;exitX=1;exitY=0.5;exitDx=0;exitDy=0;dashed=1;" edge="1" parent="1" source="SOOv6cvLNteCJ1bs6XL--8" target="SOOv6cvLNteCJ1bs6XL--31">
          <mxGeometry relative="1" as="geometry" />
        </mxCell>
        <mxCell id="SOOv6cvLNteCJ1bs6XL--8" value="test" style="rounded=1;whiteSpace=wrap;html=1;arcSize=50;" vertex="1" parent="1">
          <mxGeometry x="90" y="210" width="80" height="30" as="geometry" />
        </mxCell>
        <mxCell id="SOOv6cvLNteCJ1bs6XL--11" value="bundle TS project" style="shape=note;whiteSpace=wrap;html=1;backgroundOutline=1;darkOpacity=0.05;size=10;fillColor=#fff2cc;strokeColor=#d6b656;" vertex="1" parent="1">
          <mxGeometry x="100" y="134" width="120" height="20" as="geometry" />
        </mxCell>
        <mxCell id="SOOv6cvLNteCJ1bs6XL--18" value="rollup" style="rounded=0;whiteSpace=wrap;html=1;dashed=1;" vertex="1" parent="1">
          <mxGeometry x="230" y="65" width="70" height="35" as="geometry" />
        </mxCell>
        <mxCell id="SOOv6cvLNteCJ1bs6XL--29" value="babel" style="rounded=0;whiteSpace=wrap;html=1;dashed=1;" vertex="1" parent="1">
          <mxGeometry x="230" y="107" width="70" height="35" as="geometry" />
        </mxCell>
        <mxCell id="SOOv6cvLNteCJ1bs6XL--30" value="eslint" style="rounded=0;whiteSpace=wrap;html=1;dashed=1;" vertex="1" parent="1">
          <mxGeometry x="230" y="157.5" width="70" height="35" as="geometry" />
        </mxCell>
        <mxCell id="SOOv6cvLNteCJ1bs6XL--31" value="jest" style="rounded=0;whiteSpace=wrap;html=1;dashed=1;" vertex="1" parent="1">
          <mxGeometry x="230" y="207.5" width="70" height="35" as="geometry" />
        </mxCell>
        <mxCell id="SOOv6cvLNteCJ1bs6XL--44" style="edgeStyle=orthogonalEdgeStyle;rounded=0;orthogonalLoop=1;jettySize=auto;html=1;exitX=1;exitY=0.5;exitDx=0;exitDy=0;dashed=1;" edge="1" parent="1" source="SOOv6cvLNteCJ1bs6XL--35" target="SOOv6cvLNteCJ1bs6XL--41">
          <mxGeometry relative="1" as="geometry" />
        </mxCell>
        <mxCell id="SOOv6cvLNteCJ1bs6XL--35" value="doc" style="rounded=1;whiteSpace=wrap;html=1;arcSize=50;" vertex="1" parent="1">
          <mxGeometry x="90" y="260" width="80" height="30" as="geometry" />
        </mxCell>
        <mxCell id="SOOv6cvLNteCJ1bs6XL--41" value="typedoc" style="rounded=0;whiteSpace=wrap;html=1;dashed=1;" vertex="1" parent="1">
          <mxGeometry x="230" y="257.5" width="70" height="35" as="geometry" />
        </mxCell>
        <mxCell id="SOOv6cvLNteCJ1bs6XL--45" value="generate API docs" style="shape=note;whiteSpace=wrap;html=1;backgroundOutline=1;darkOpacity=0.05;size=10;fillColor=#fff2cc;strokeColor=#d6b656;" vertex="1" parent="1">
          <mxGeometry x="100" y="284" width="120" height="20" as="geometry" />
        </mxCell>
      </root>
    </mxGraphModel>
  </diagram>
</mxfile>
